<svg width="96" height="96" viewBox="0 0 96 96" fill="none" xmlns="http://www.w3.org/2000/svg">
  <rect width="96" height="96" rx="18" fill="#171512"/>
  <path d="M48 14L72 24V43C72 59.5 62.3 73.4 48 82C33.7 73.4 24 59.5 24 43V24L48 14Z" fill="#D6F2CF"/>
  <path d="M48 25L61 30.4V43.6C61 53.1 56 61.2 48 66.9C40 61.2 35 53.1 35 43.6V30.4L48 25Z" fill="#183A2B"/>
  <circle cx="48" cy="44" r="8" fill="#B86436"/>
  <path d="M48 36V28" stroke="#FFF7EC" stroke-width="4" stroke-linecap="round"/>
  <path d="M48 60V52" stroke="#FFF7EC" stroke-width="4" stroke-linecap="round"/>
  <path d="M40 44H32" stroke="#FFF7EC" stroke-width="4" stroke-linecap="round"/>
  <path d="M64 44H56" stroke="#FFF7EC" stroke-width="4" stroke-linecap="round"/>
</svg>
